<svg xmlns="http://www.w3.org/2000/svg" viewBox="0 0 932.8 357.29"><defs><style>.cls-1{fill:#004b8d;}.cls-2{fill:#1e8ece;}.cls-3{fill:#fff;}</style></defs><title>Asset 40</title><g id="Layer_2" data-name="Layer 2"><g id="Layer_2-2" data-name="Layer 2"><path class="cls-1" d="M860.24,120a78.88,78.88,0,0,0-34.69,7.61A44,44,0,0,0,800,120h-.37c.09-1.12.17-2.25.17-3.4a46,46,0,1,0-85.09,24.17,48.37,48.37,0,0,0-6.2,24.49V213.9a43.37,43.37,0,0,0-14.14-.3V194.54c0-45.27-28.48-74.52-72.56-74.52a85.47,85.47,0,0,0-13.21,1v-4.14c0-26.24-19-45.28-45.28-45.28s-45.27,19-45.27,45.28V120l-.69,0c-21.3,0-37.11,11.26-42.88,29.25-5.77-18-21.58-29.25-42.89-29.25a51.37,51.37,0,0,0-18,3.09A47.88,47.88,0,0,0,396.48,120C379,120,364.85,129.23,357,145.2,349.38,129.65,333.85,120,315.37,120a44.78,44.78,0,0,0-16.26,3,51.24,51.24,0,0,0-17.9-3c-21.31,0-37.11,11.26-42.89,29.25-5.77-18-21.57-29.25-42.88-29.25-.73,0-1.43.06-2.15.09-13.14-28.37-42-45.31-80.67-45.31H50.93C19.51,74.8,0,94.31,0,125.73V262.12c0,27.08,20.42,47.49,47.49,47.49S95,289.2,95,262.12V241.54h17.39a102.53,102.53,0,0,0,37.79-6.87v.42c0,45.27,28.48,74.52,72.56,74.52A78.75,78.75,0,0,0,257.41,302a43.22,43.22,0,0,0,22.44,7.53c-.11,1.3-.17,2.63-.17,4,0,21.1,15.63,43.8,49.95,43.8,47.36,0,61-39,66.82-55.6l5.86-16.62c12.66,15.62,32.25,24.54,56.59,24.54A78.75,78.75,0,0,0,493.59,302a44.05,44.05,0,0,0,25.52,7.62,45.11,45.11,0,0,0,21.53-5.17,49.15,49.15,0,0,0,22.71,5.17c21.31,0,37.12-11.26,42.89-29.25,5.77,18,21.58,29.25,42.88,29.25,10.74,0,20-2.89,27.41-8a47,47,0,0,0,49-.65c7.5,5.54,17.13,8.68,28.3,8.68a48.69,48.69,0,0,0,24-5.88,48.75,48.75,0,0,0,24,5.88c21.3,0,37.11-11.26,42.88-29.25,5.77,18,21.58,29.25,42.89,29.25,27.08,0,45.28-18.19,45.28-45.27v-69.8C932.8,149.27,904.31,120,860.24,120Z"/><path class="cls-1" d="M739.09,2.48c-31.64-7.54-59.8,2.18-81.39,28.21l7.17,3.17s45.72-32.62,70.19,23c0,0,5.14,10.63,23.11,2.62S770.74,10,739.09,2.48Z"/><path class="cls-1" d="M678.45,85c-8.36,12.21-12.88,28-15,37.6-.57,2.58-1,4.74-1.24,6.24s-.39,2.44-.39,2.44C564,144.45,535.05,80.8,535.05,80.8,610.74,16.18,642,23.86,657.69,30.68l1.49.67c2.2,1,4,1.91,5.7,2.51a19.79,19.79,0,0,1,3.51,1.8,30.08,30.08,0,0,1,6.49,6.24C683.21,52.68,687.94,71.16,678.45,85Z"/><path class="cls-2" d="M676.52,65.87s17-1.44,22.09,22.2c0,0-29.92-3.55-37.38-2.61C661.23,85.46,673.17,65.63,676.52,65.87Z"/><circle class="cls-3" cx="632.93" cy="66.09" r="12.47"/><circle class="cls-1" cx="632.88" cy="66.09" r="9.17"/><circle class="cls-3" cx="629.01" cy="62.8" r="3.08"/><path class="cls-3" d="M674.88,41.9c-2.8,0-6,0-9.49,0-66.71-.72-63.63,22.12-76.13,26.6s-6.07-5.78-6.07-5.78c32.6-36.12,82.91-27.25,82.91-27.25l2.29.23A30.08,30.08,0,0,1,674.88,41.9Z"/><path class="cls-3" d="M663.42,122.63c-.57,2.58-1,4.74-1.24,6.24-22.26,2.2-64.38.26-62.09-46.26,0,0,1.06-10.26,5.6-9.19S607.82,75,608,83.57C608.26,91.69,608.41,123.73,663.42,122.63Z"/><path class="cls-3" d="M577,49.09a1.87,1.87,0,0,1,.93.5c1.15,1.2.14,4-2.22,6.17s-5.19,3-6.31,1.84c-.71-.77-.57-2.14.19-3.59Z"/><ellipse class="cls-3" cx="557.88" cy="66.13" rx="5.85" ry="2.99" transform="translate(105.6 399.36) rotate(-43.14)"/><ellipse class="cls-3" cx="571.29" cy="68.8" rx="5.85" ry="2.99" transform="translate(107.4 409.25) rotate(-43.14)"/><ellipse class="cls-3" cx="579.03" cy="75.49" rx="5.85" ry="2.99" transform="translate(104.91 416.35) rotate(-43.14)"/><ellipse class="cls-3" cx="557.33" cy="81.88" rx="5.85" ry="2.99" transform="translate(94.67 403.24) rotate(-43.14)"/><ellipse class="cls-3" cx="545.58" cy="77.65" rx="5.85" ry="2.99" transform="translate(94.4 394.07) rotate(-43.14)"/><ellipse class="cls-3" cx="554.8" cy="94.63" rx="5.85" ry="2.99" transform="translate(85.28 404.96) rotate(-43.14)"/><ellipse class="cls-3" cx="568.13" cy="85.7" rx="5.85" ry="2.99" transform="translate(94.98 411.66) rotate(-43.14)"/><ellipse class="cls-3" cx="579.73" cy="89.44" rx="5.85" ry="2.99" transform="translate(95.56 420.6) rotate(-43.14)"/><ellipse class="cls-3" cx="567.55" cy="96.52" rx="5.85" ry="2.99" transform="translate(87.43 414.19) rotate(-43.14)"/><ellipse class="cls-3" cx="580.61" cy="100.06" rx="5.85" ry="2.99" transform="translate(88.54 424.08) rotate(-43.14)"/><ellipse class="cls-3" cx="568.12" cy="105.36" rx="5.85" ry="2.99" transform="translate(81.54 416.97) rotate(-43.14)"/><ellipse class="cls-3" cx="555.61" cy="107.16" rx="5.85" ry="2.99" transform="translate(76.93 408.9) rotate(-43.14)"/><ellipse class="cls-3" cx="543.04" cy="105.65" rx="5.85" ry="2.99" transform="translate(74.56 399.9) rotate(-43.14)"/><ellipse class="cls-3" cx="542.21" cy="92.87" rx="5.85" ry="2.99" transform="translate(83.08 395.88) rotate(-43.14)"/><ellipse class="cls-3" cx="562.07" cy="117.44" rx="5.85" ry="2.99" transform="translate(71.64 416.1) rotate(-43.14)"/><ellipse class="cls-3" cx="575.57" cy="113.31" rx="5.85" ry="2.99" transform="translate(78.12 424.21) rotate(-43.14)"/><path class="cls-3" d="M27.51,125.73c0-18,9.34-23.6,23.59-23.6h61.69c33.91,0,61.19,16.71,61.19,56,0,32.19-22.36,56-61.44,56H67.81v47.93c0,12-7.86,20.15-20.15,20.15s-20.15-8.11-20.15-20.15Zm40.3,57.51h37.6c16.22,0,28.27-9.84,28.27-25.07,0-17.7-12.54-25.07-32.44-25.07H67.81Z"/><path class="cls-3" d="M299.32,264.34c0,10.81-4.91,17.94-16.22,17.94s-16.22-7.13-16.22-17.94v-4.67h-.49c-10.08,13.27-23.1,22.61-43.5,22.61-21.63,0-45.22-10.82-45.22-47.19v-69.8c0-9.58,3.93-17.94,17.94-17.94s17.94,8.36,17.94,17.94V228c0,14.5,7.13,24.82,22.61,24.82a27.86,27.86,0,0,0,27.28-28.26V165.29c0-9.58,3.93-17.94,17.94-17.94s17.94,8.36,17.94,17.94Z"/><path class="cls-3" d="M357.08,244.67h.49l21.87-81.34c2.46-9.1,7.38-16,17.21-16,14.25,0,18.43,11.8,18.43,16.22,0,3-1,6.64-2.7,11.31L370.84,292.6c-8.6,24.58-18.43,37.36-41,37.36-16,0-22.61-7.87-22.61-16.47,0-9.59,6.88-14.5,16.46-14.5h3.69c4.67,0,9.83-.25,12.53-11.31L302.52,181.27c-2.95-8.6-4.42-12.54-4.42-16.71a17.15,17.15,0,0,1,17.44-17.21c9.59,0,16.22,5.41,18.44,13.52Z"/><path class="cls-3" d="M535.51,264.34c0,10.81-4.92,17.94-16.23,17.94s-16.22-7.13-16.22-17.94v-4.67h-.49c-10.07,13.27-23.1,22.61-43.5,22.61-21.62,0-45.22-10.82-45.22-47.19v-69.8c0-9.58,3.94-17.94,17.94-17.94s17.94,8.36,17.94,17.94V228c0,14.5,7.13,24.82,22.62,24.82a27.86,27.86,0,0,0,27.27-28.26V165.29c0-9.58,3.93-17.94,17.94-17.94s18,8.36,18,17.94Z"/><path class="cls-3" d="M545.58,116.88c0-11.8,7.13-17.94,17.94-17.94s17.94,6.14,17.94,17.94v49.4h.5c7.12-9.34,19.66-18.93,40-18.93,21.63,0,45.23,10.82,45.23,47.19v69.8c0,9.58-3.94,17.94-18,17.94s-17.94-8.36-17.94-17.94V201.67c0-14.5-7.12-24.83-22.61-24.83a27.87,27.87,0,0,0-27.28,28.27v59.23c0,9.58-3.93,17.94-17.94,17.94s-17.94-8.36-17.94-17.94Z"/><path class="cls-3" d="M700.66,240.5a20.15,20.15,0,1,1-20.15,20.15A20.24,20.24,0,0,1,700.66,240.5Z"/><path class="cls-3" d="M754,98a18.68,18.68,0,1,1-18.68,18.68A18.68,18.68,0,0,1,754,98Zm-17.94,67.34c0-9.58,3.93-17.94,17.94-17.94s17.94,8.36,17.94,17.94v99c0,9.58-3.93,17.94-17.94,17.94s-17.94-8.36-17.94-17.94Z"/><path class="cls-3" d="M784,165.29c0-10.81,4.91-17.94,16.22-17.94s16.22,7.13,16.22,17.94V170h.49c10.08-13.27,23.1-22.61,43.5-22.61,21.63,0,45.22,10.82,45.22,47.19v69.8c0,9.58-3.93,17.94-17.94,17.94s-17.94-8.36-17.94-17.94V201.67c0-14.5-7.13-24.83-22.61-24.83a27.87,27.87,0,0,0-27.28,28.27v59.23c0,9.58-3.93,17.94-17.94,17.94S784,273.92,784,264.34Z"/></g></g></svg>