<svg xmlns="http://www.w3.org/2000/svg" viewBox="0 0 355.91 290.53"><defs><style>.cls-1{fill:#004b8d;}.cls-2{fill:#1e8ece;}.cls-3{fill:#fff;}</style></defs><title>logo-mini0</title><g id="Layer_2" data-name="Layer 2"><g id="Layer_6" data-name="Layer 6"><circle class="cls-1" cx="122.05" cy="168.47" r="122.05"/><path class="cls-1" d="M333.42,7.52c-29.7-13.27-59.16-8.93-85.21,12.65l6.47,4.45S305.65,1,319.4,60.2c0,0,3.08,11.39,22.22,6.85S363.12,20.8,333.42,7.52Z"/><path class="cls-1" d="M258.54,77.42c-10.47,10.45-17.83,25.11-21.72,34.16-1,2.43-1.85,4.48-2.38,5.9s-.83,2.33-.83,2.33c-98.51-5.18-115.2-73.1-115.2-73.1C204.75-2.79,234,10.55,248.21,20.16l1.34.94c2,1.37,3.62,2.62,5.13,3.52A18.61,18.61,0,0,1,257.8,27,29.94,29.94,0,0,1,263,34.37C269.22,46.5,270.44,65.55,258.54,77.42Z"/><path class="cls-2" d="M260.2,58.23s17,1.73,17.59,25.91c0,0-28.74-9-36.25-9.49C241.54,74.65,257,57.37,260.2,58.23Z"/><circle class="cls-3" cx="217.32" cy="50.37" r="12.47"/><circle class="cls-1" cx="217.27" cy="50.37" r="9.17"/><circle class="cls-3" cx="214.08" cy="46.42" r="3.08"/><path class="cls-3" d="M263,34.37c-2.75-.5-5.84-1.1-9.31-1.8-65.43-13-66.63,10-79.74,12s-4.9-6.79-4.9-6.79C207.79,8.36,255.6,26.38,255.6,26.38l2.2.66A29.94,29.94,0,0,1,263,34.37Z"/><path class="cls-3" d="M236.82,111.58c-1,2.43-1.85,4.48-2.38,5.9-22.29-2-63.32-11.66-52.45-57,0,0,2.94-9.88,7.2-8s1.8,2,.43,10.41C188.34,71,182.55,102.48,236.82,111.58Z"/><path class="cls-3" d="M165.45,23.31a1.82,1.82,0,0,1,.83.65c.9,1.4-.6,3.92-3.32,5.66s-5.67,2-6.55.63c-.55-.88-.17-2.2.85-3.48Z"/><ellipse class="cls-3" cx="143.56" cy="36.51" rx="5.85" ry="2.99" transform="translate(2.84 82.78) rotate(-32.47)"/><ellipse class="cls-3" cx="156.24" cy="41.62" rx="5.85" ry="2.99" transform="translate(2.08 90.39) rotate(-32.47)"/><ellipse class="cls-3" cx="162.61" cy="49.63" rx="5.85" ry="2.99" transform="translate(-1.22 95.06) rotate(-32.47)"/><ellipse class="cls-3" cx="140.1" cy="51.9" rx="5.85" ry="2.99" transform="translate(-5.96 83.33) rotate(-32.47)"/><ellipse class="cls-3" cx="129.35" cy="45.56" rx="5.85" ry="2.99" transform="translate(-4.24 76.57) rotate(-32.47)"/><ellipse class="cls-3" cx="135.26" cy="63.95" rx="5.85" ry="2.99" transform="translate(-13.19 82.62) rotate(-32.47)"/><ellipse class="cls-3" cx="150.01" cy="57.65" rx="5.85" ry="2.99" transform="translate(-7.5 89.55) rotate(-32.47)"/><ellipse class="cls-3" cx="160.71" cy="63.47" rx="5.85" ry="2.99" transform="translate(-8.95 96.21) rotate(-32.47)"/><ellipse class="cls-3" cx="147.44" cy="68.17" rx="5.85" ry="2.99" transform="translate(-13.55 89.82) rotate(-32.47)"/><ellipse class="cls-3" cx="159.61" cy="74.07" rx="5.85" ry="2.99" transform="matrix(0.84, -0.54, 0.54, 0.84, -14.81, 97.28)"/><ellipse class="cls-3" cx="146.36" cy="76.97" rx="5.85" ry="2.99" transform="translate(-18.44 90.61) rotate(-32.47)"/><ellipse class="cls-3" cx="133.73" cy="76.42" rx="5.85" ry="2.99" transform="translate(-20.12 83.75) rotate(-32.47)"/><ellipse class="cls-3" cx="121.66" cy="72.61" rx="5.85" ry="2.99" transform="translate(-19.96 76.67) rotate(-32.47)"/><ellipse class="cls-3" cx="123.22" cy="59.89" rx="5.85" ry="2.99" transform="matrix(0.84, -0.54, 0.54, 0.84, -12.89, 75.52)"/><ellipse class="cls-3" cx="138.18" cy="87.71" rx="5.85" ry="2.99" transform="translate(-25.49 87.9) rotate(-32.47)"/><ellipse class="cls-3" cx="152.21" cy="86.16" rx="5.85" ry="2.99" transform="translate(-22.46 95.19) rotate(-32.47)"/><path class="cls-2" d="M217.26,157.06a18.79,18.79,0,0,0-8.28,1.82,10.5,10.5,0,0,0-6.1-1.82h-.08c0-.26,0-.53,0-.81a11,11,0,0,0-22,0,10.84,10.84,0,0,0,1.66,5.77,11.57,11.57,0,0,0-1.48,5.85v11.61a11.17,11.17,0,0,0-1.93-.18,11.65,11.65,0,0,0-1.45.11v-4.55c0-10.81-6.8-17.8-17.33-17.8a20.4,20.4,0,0,0-3.15.24v-1a10.81,10.81,0,0,0-21.62,0v.76h-.17c-5.09,0-8.86,2.69-10.24,7-1.38-4.3-5.15-7-10.24-7a12.32,12.32,0,0,0-4.3.74,11.47,11.47,0,0,0-4.09-.74,10.21,10.21,0,0,0-9.43,6,11.09,11.09,0,0,0-13.82-5.28,12.24,12.24,0,0,0-4.28-.73c-5.08,0-8.86,2.69-10.24,7-1.38-4.3-5.15-7-10.24-7l-.51,0c-3.14-6.77-10-10.82-19.27-10.82H24c-7.5,0-12.16,4.66-12.16,12.16V191a11.1,11.1,0,0,0,11.34,11.34A11.09,11.09,0,0,0,34.52,191v-4.92h4.16a24.47,24.47,0,0,0,9-1.64v.1c0,10.81,6.8,17.8,17.33,17.8a18.82,18.82,0,0,0,8.28-1.82,10.32,10.32,0,0,0,5.36,1.79c0,.31,0,.63,0,.95,0,5,3.73,10.46,11.93,10.46,11.31,0,14.57-9.31,16-13.28l1.4-4c3,3.73,7.7,5.87,13.51,5.87a18.83,18.83,0,0,0,8.29-1.82,10.54,10.54,0,0,0,6.09,1.82,10.73,10.73,0,0,0,5.14-1.24,11.75,11.75,0,0,0,5.43,1.24c5.08,0,8.86-2.69,10.24-7,1.38,4.3,5.15,7,10.24,7a11.33,11.33,0,0,0,6.54-1.92,11.26,11.26,0,0,0,11.7-.16,11.16,11.16,0,0,0,6.76,2.08,11.62,11.62,0,0,0,5.72-1.41,11.62,11.62,0,0,0,5.72,1.41c5.09,0,8.87-2.69,10.24-7,1.38,4.3,5.16,7,10.25,7,6.46,0,10.81-4.35,10.81-10.82V174.86C234.59,164.05,227.79,157.06,217.26,157.06Z"/><path class="cls-3" d="M18.41,158.42c0-4.28,2.23-5.63,5.64-5.63H38.78c8.09,0,14.61,4,14.61,13.38,0,7.69-5.34,13.38-14.67,13.38H28V191a4.53,4.53,0,0,1-4.82,4.81A4.53,4.53,0,0,1,18.41,191ZM28,172.16h9c3.88,0,6.75-2.35,6.75-6,0-4.22-3-6-7.74-6H28Z"/><path class="cls-3" d="M83.32,191.52c0,2.59-1.18,4.29-3.87,4.29s-3.88-1.7-3.88-4.29v-1.11h-.12c-2.4,3.17-5.51,5.4-10.38,5.4-5.17,0-10.8-2.58-10.8-11.27V167.87c0-2.29.94-4.28,4.28-4.28s4.29,2,4.29,4.28v15c0,3.46,1.7,5.92,5.4,5.92A6.65,6.65,0,0,0,74.75,182V167.87c0-2.29.94-4.28,4.28-4.28s4.29,2,4.29,4.28Z"/><path class="cls-3" d="M97.11,186.83h.12l5.22-19.43c.59-2.17,1.76-3.81,4.11-3.81a4.19,4.19,0,0,1,4.4,3.87,8.28,8.28,0,0,1-.64,2.7l-9.92,28.11c-2.06,5.87-4.4,8.92-9.8,8.92-3.82,0-5.4-1.88-5.4-3.93,0-2.29,1.64-3.46,3.93-3.46H90c1.11,0,2.35-.06,3-2.7l-8.92-25.41a13.42,13.42,0,0,1-1-4,4.09,4.09,0,0,1,4.16-4.11,4.29,4.29,0,0,1,4.4,3.23Z"/><path class="cls-3" d="M139.72,191.52c0,2.59-1.18,4.29-3.88,4.29s-3.87-1.7-3.87-4.29v-1.11h-.12c-2.4,3.17-5.51,5.4-10.38,5.4-5.17,0-10.8-2.58-10.8-11.27V167.87c0-2.29.94-4.28,4.28-4.28s4.29,2,4.29,4.28v15c0,3.46,1.7,5.92,5.4,5.92a6.65,6.65,0,0,0,6.51-6.74V167.87c0-2.29.94-4.28,4.28-4.28s4.29,2,4.29,4.28Z"/><path class="cls-3" d="M142.12,156.31a4.29,4.29,0,0,1,8.57,0v11.8h.12a11.51,11.51,0,0,1,9.57-4.52c5.16,0,10.79,2.58,10.79,11.27v16.66c0,2.29-.94,4.29-4.28,4.29s-4.28-2-4.28-4.29v-15c0-3.46-1.71-5.93-5.4-5.93a6.66,6.66,0,0,0-6.52,6.75v14.14c0,2.29-.94,4.29-4.28,4.29s-4.29-2-4.29-4.29Z"/><path class="cls-3" d="M179.16,185.83a4.82,4.82,0,1,1-4.82,4.81A4.83,4.83,0,0,1,179.16,185.83Z"/><path class="cls-3" d="M191.89,151.79a4.46,4.46,0,1,1-4.46,4.46A4.46,4.46,0,0,1,191.89,151.79Zm-4.28,16.08c0-2.29.94-4.28,4.28-4.28s4.28,2,4.28,4.28v23.65c0,2.29-.93,4.29-4.28,4.29s-4.28-2-4.28-4.29Z"/><path class="cls-3" d="M199.05,167.87c0-2.58,1.17-4.28,3.87-4.28s3.88,1.7,3.88,4.28V169h.11c2.41-3.17,5.52-5.4,10.39-5.4,5.17,0,10.8,2.58,10.8,11.27v16.66c0,2.29-.94,4.29-4.28,4.29s-4.29-2-4.29-4.29v-15c0-3.46-1.7-5.93-5.4-5.93a6.66,6.66,0,0,0-6.51,6.75v14.14c0,2.29-.94,4.29-4.29,4.29s-4.28-2-4.28-4.29Z"/></g></g></svg>